<mxfile host="app.diagrams.net" modified="2024-01-08T09:41:01.033Z" agent="Mozilla/5.0 (Windows NT 10.0; Win64; x64) AppleWebKit/537.36 (KHTML, like Gecko) Chrome/120.0.0.0 Safari/537.36" etag="k-ggaueT2e7wLO3mHz2o" version="22.1.17" type="github">
  <diagram name="第 1 页" id="Nubd9tPeUpGx3cn0c1cl">
    <mxGraphModel dx="1083" dy="1254" grid="0" gridSize="10" guides="1" tooltips="1" connect="1" arrows="1" fold="1" page="0" pageScale="1" pageWidth="827" pageHeight="1169" math="0" shadow="0">
      <root>
        <mxCell id="0" />
        <mxCell id="1" parent="0" />
        <mxCell id="UHW9YeLzTPtT-l6VQSWu-3" style="edgeStyle=none;curved=1;rounded=0;orthogonalLoop=1;jettySize=auto;html=1;exitX=0;exitY=1;exitDx=0;exitDy=0;entryX=0.5;entryY=0;entryDx=0;entryDy=0;fontSize=12;startSize=8;endSize=8;" edge="1" parent="1" source="UHW9YeLzTPtT-l6VQSWu-1" target="UHW9YeLzTPtT-l6VQSWu-2">
          <mxGeometry relative="1" as="geometry" />
        </mxCell>
        <mxCell id="UHW9YeLzTPtT-l6VQSWu-4" value="拉取数据" style="edgeLabel;html=1;align=center;verticalAlign=middle;resizable=0;points=[];fontSize=16;" vertex="1" connectable="0" parent="UHW9YeLzTPtT-l6VQSWu-3">
          <mxGeometry relative="1" as="geometry">
            <mxPoint as="offset" />
          </mxGeometry>
        </mxCell>
        <mxCell id="UHW9YeLzTPtT-l6VQSWu-15" style="edgeStyle=none;curved=1;rounded=0;orthogonalLoop=1;jettySize=auto;html=1;exitX=1;exitY=1;exitDx=0;exitDy=0;entryX=0.5;entryY=0;entryDx=0;entryDy=0;fontSize=12;startSize=8;endSize=8;" edge="1" parent="1" source="UHW9YeLzTPtT-l6VQSWu-1" target="UHW9YeLzTPtT-l6VQSWu-14">
          <mxGeometry relative="1" as="geometry" />
        </mxCell>
        <mxCell id="UHW9YeLzTPtT-l6VQSWu-1" value="HDFS" style="rounded=0;whiteSpace=wrap;html=1;fontSize=16;" vertex="1" parent="1">
          <mxGeometry x="-67" y="-18" width="527" height="34" as="geometry" />
        </mxCell>
        <mxCell id="UHW9YeLzTPtT-l6VQSWu-7" style="edgeStyle=none;curved=1;rounded=0;orthogonalLoop=1;jettySize=auto;html=1;exitX=0.5;exitY=1;exitDx=0;exitDy=0;entryX=0.5;entryY=0;entryDx=0;entryDy=0;fontSize=12;startSize=8;endSize=8;" edge="1" parent="1" source="UHW9YeLzTPtT-l6VQSWu-2" target="UHW9YeLzTPtT-l6VQSWu-6">
          <mxGeometry relative="1" as="geometry" />
        </mxCell>
        <mxCell id="UHW9YeLzTPtT-l6VQSWu-8" value="http请求" style="edgeLabel;html=1;align=center;verticalAlign=middle;resizable=0;points=[];fontSize=16;" vertex="1" connectable="0" parent="UHW9YeLzTPtT-l6VQSWu-7">
          <mxGeometry x="-0.0244" y="1" relative="1" as="geometry">
            <mxPoint as="offset" />
          </mxGeometry>
        </mxCell>
        <mxCell id="UHW9YeLzTPtT-l6VQSWu-12" style="edgeStyle=none;curved=1;rounded=0;orthogonalLoop=1;jettySize=auto;html=1;exitX=1;exitY=0.5;exitDx=0;exitDy=0;entryX=0.5;entryY=1;entryDx=0;entryDy=0;fontSize=12;startSize=8;endSize=8;" edge="1" parent="1" source="UHW9YeLzTPtT-l6VQSWu-2" target="UHW9YeLzTPtT-l6VQSWu-1">
          <mxGeometry relative="1" as="geometry" />
        </mxCell>
        <mxCell id="UHW9YeLzTPtT-l6VQSWu-13" value="上传索引文件" style="edgeLabel;html=1;align=center;verticalAlign=middle;resizable=0;points=[];fontSize=16;" vertex="1" connectable="0" parent="UHW9YeLzTPtT-l6VQSWu-12">
          <mxGeometry x="-0.0128" relative="1" as="geometry">
            <mxPoint as="offset" />
          </mxGeometry>
        </mxCell>
        <mxCell id="UHW9YeLzTPtT-l6VQSWu-2" value="index" style="rounded=0;whiteSpace=wrap;html=1;fontSize=16;" vertex="1" parent="1">
          <mxGeometry x="-67" y="70" width="120" height="60" as="geometry" />
        </mxCell>
        <mxCell id="UHW9YeLzTPtT-l6VQSWu-10" style="edgeStyle=none;curved=1;rounded=0;orthogonalLoop=1;jettySize=auto;html=1;exitX=0;exitY=0.5;exitDx=0;exitDy=0;entryX=0;entryY=0.25;entryDx=0;entryDy=0;fontSize=12;startSize=8;endSize=8;" edge="1" parent="1" source="UHW9YeLzTPtT-l6VQSWu-6" target="UHW9YeLzTPtT-l6VQSWu-2">
          <mxGeometry relative="1" as="geometry">
            <Array as="points">
              <mxPoint x="-130" y="173" />
            </Array>
          </mxGeometry>
        </mxCell>
        <mxCell id="UHW9YeLzTPtT-l6VQSWu-11" value="http响应" style="edgeLabel;html=1;align=center;verticalAlign=middle;resizable=0;points=[];fontSize=16;" vertex="1" connectable="0" parent="UHW9YeLzTPtT-l6VQSWu-10">
          <mxGeometry x="0.2002" y="-19" relative="1" as="geometry">
            <mxPoint as="offset" />
          </mxGeometry>
        </mxCell>
        <mxCell id="UHW9YeLzTPtT-l6VQSWu-6" value="index-生成服务（recall-service）" style="rounded=0;whiteSpace=wrap;html=1;fontSize=16;" vertex="1" parent="1">
          <mxGeometry x="-67" y="214" width="120" height="60" as="geometry" />
        </mxCell>
        <mxCell id="UHW9YeLzTPtT-l6VQSWu-17" style="edgeStyle=none;curved=1;rounded=0;orthogonalLoop=1;jettySize=auto;html=1;exitX=0.5;exitY=1;exitDx=0;exitDy=0;fontSize=12;startSize=8;endSize=8;" edge="1" parent="1" source="UHW9YeLzTPtT-l6VQSWu-14" target="UHW9YeLzTPtT-l6VQSWu-16">
          <mxGeometry relative="1" as="geometry" />
        </mxCell>
        <mxCell id="UHW9YeLzTPtT-l6VQSWu-18" value="分发索引文件" style="edgeLabel;html=1;align=center;verticalAlign=middle;resizable=0;points=[];fontSize=16;" vertex="1" connectable="0" parent="UHW9YeLzTPtT-l6VQSWu-17">
          <mxGeometry x="-0.1724" y="1" relative="1" as="geometry">
            <mxPoint as="offset" />
          </mxGeometry>
        </mxCell>
        <mxCell id="UHW9YeLzTPtT-l6VQSWu-14" value="p2p文件分发" style="rounded=0;whiteSpace=wrap;html=1;fontSize=16;" vertex="1" parent="1">
          <mxGeometry x="340" y="67" width="120" height="60" as="geometry" />
        </mxCell>
        <mxCell id="UHW9YeLzTPtT-l6VQSWu-16" value="recall-service（online）" style="rounded=0;whiteSpace=wrap;html=1;fontSize=16;" vertex="1" parent="1">
          <mxGeometry x="340" y="214" width="120" height="60" as="geometry" />
        </mxCell>
      </root>
    </mxGraphModel>
  </diagram>
</mxfile>
